<mxfile host="app.diagrams.net" modified="2021-07-01T07:05:30.151Z" agent="5.0 (Windows NT 10.0; WOW64) AppleWebKit/537.36 (KHTML, like Gecko) Chrome/91.0.4472.114 Safari/537.36" etag="RUjvaxdYa2COnG9ZRdAl" version="14.8.2" type="github">
  <diagram id="WEavagxoX7mWQo-rN5Ej" name="Page-1">
    <mxGraphModel dx="1102" dy="582" grid="0" gridSize="10" guides="1" tooltips="1" connect="1" arrows="1" fold="1" page="1" pageScale="1" pageWidth="827" pageHeight="1169" math="0" shadow="0">
      <root>
        <mxCell id="0" />
        <mxCell id="1" parent="0" />
        <mxCell id="meVRYA2Hp27yC9P9ZgB7-4" value="" style="rounded=0;whiteSpace=wrap;html=1;strokeColor=#6c8ebf;fillColor=none;strokeWidth=3;" parent="1" vertex="1">
          <mxGeometry x="529" y="151" width="230" height="90" as="geometry" />
        </mxCell>
        <mxCell id="meVRYA2Hp27yC9P9ZgB7-5" value="&lt;b&gt;Matlab&lt;/b&gt;" style="rounded=1;whiteSpace=wrap;html=1;strokeColor=#6c8ebf;fillColor=#dae8fc;strokeWidth=3;" parent="1" vertex="1">
          <mxGeometry x="539" y="161" width="90" height="40" as="geometry" />
        </mxCell>
        <mxCell id="meVRYA2Hp27yC9P9ZgB7-6" value="&lt;b&gt;CodeV&lt;/b&gt;" style="rounded=1;whiteSpace=wrap;html=1;strokeColor=#6c8ebf;fillColor=#dae8fc;strokeWidth=3;" parent="1" vertex="1">
          <mxGeometry x="659" y="161" width="90" height="40" as="geometry" />
        </mxCell>
        <mxCell id="meVRYA2Hp27yC9P9ZgB7-13" value="&lt;b&gt;计算节点1&lt;/b&gt;" style="text;html=1;strokeColor=none;fillColor=none;align=center;verticalAlign=middle;whiteSpace=wrap;rounded=0;" parent="1" vertex="1">
          <mxGeometry x="604" y="211" width="80" height="20" as="geometry" />
        </mxCell>
        <mxCell id="meVRYA2Hp27yC9P9ZgB7-14" value="" style="rounded=0;whiteSpace=wrap;html=1;strokeColor=#6c8ebf;fillColor=none;strokeWidth=3;" parent="1" vertex="1">
          <mxGeometry x="529" y="294" width="230" height="90" as="geometry" />
        </mxCell>
        <mxCell id="meVRYA2Hp27yC9P9ZgB7-15" value="&lt;b&gt;Matlab&lt;/b&gt;" style="rounded=1;whiteSpace=wrap;html=1;strokeColor=#6c8ebf;fillColor=#dae8fc;strokeWidth=3;" parent="1" vertex="1">
          <mxGeometry x="539" y="304" width="90" height="40" as="geometry" />
        </mxCell>
        <mxCell id="meVRYA2Hp27yC9P9ZgB7-16" value="&lt;b&gt;CodeV&lt;/b&gt;" style="rounded=1;whiteSpace=wrap;html=1;strokeColor=#6c8ebf;fillColor=#dae8fc;strokeWidth=3;" parent="1" vertex="1">
          <mxGeometry x="659" y="304" width="90" height="40" as="geometry" />
        </mxCell>
        <mxCell id="meVRYA2Hp27yC9P9ZgB7-17" value="&lt;b&gt;计算节点2&lt;/b&gt;" style="text;html=1;strokeColor=none;fillColor=none;align=center;verticalAlign=middle;whiteSpace=wrap;rounded=0;" parent="1" vertex="1">
          <mxGeometry x="604" y="354" width="80" height="20" as="geometry" />
        </mxCell>
        <mxCell id="meVRYA2Hp27yC9P9ZgB7-18" value="" style="rounded=0;whiteSpace=wrap;html=1;strokeColor=#6c8ebf;fillColor=none;strokeWidth=3;" parent="1" vertex="1">
          <mxGeometry x="529" y="441" width="230" height="90" as="geometry" />
        </mxCell>
        <mxCell id="meVRYA2Hp27yC9P9ZgB7-19" value="&lt;b&gt;Matlab&lt;/b&gt;" style="rounded=1;whiteSpace=wrap;html=1;strokeColor=#6c8ebf;fillColor=#dae8fc;strokeWidth=3;" parent="1" vertex="1">
          <mxGeometry x="539" y="451" width="90" height="40" as="geometry" />
        </mxCell>
        <mxCell id="meVRYA2Hp27yC9P9ZgB7-20" value="&lt;b&gt;CodeV&lt;/b&gt;" style="rounded=1;whiteSpace=wrap;html=1;strokeColor=#6c8ebf;fillColor=#dae8fc;strokeWidth=3;" parent="1" vertex="1">
          <mxGeometry x="659" y="451" width="90" height="40" as="geometry" />
        </mxCell>
        <mxCell id="meVRYA2Hp27yC9P9ZgB7-21" value="&lt;b&gt;计算节点3&lt;/b&gt;" style="text;html=1;strokeColor=none;fillColor=none;align=center;verticalAlign=middle;whiteSpace=wrap;rounded=0;" parent="1" vertex="1">
          <mxGeometry x="604" y="501" width="80" height="20" as="geometry" />
        </mxCell>
        <mxCell id="meVRYA2Hp27yC9P9ZgB7-23" value="" style="rounded=0;whiteSpace=wrap;html=1;fillColor=#f8cecc;strokeColor=#b85450;strokeWidth=3;" parent="1" vertex="1">
          <mxGeometry x="59" y="279" width="365" height="181" as="geometry" />
        </mxCell>
        <mxCell id="meVRYA2Hp27yC9P9ZgB7-40" value="" style="endArrow=classic;startArrow=classic;html=1;strokeWidth=2;" parent="1" edge="1">
          <mxGeometry width="50" height="50" relative="1" as="geometry">
            <mxPoint x="404" y="339" as="sourcePoint" />
            <mxPoint x="529" y="201" as="targetPoint" />
          </mxGeometry>
        </mxCell>
        <mxCell id="meVRYA2Hp27yC9P9ZgB7-41" value="" style="endArrow=classic;startArrow=classic;html=1;entryX=0;entryY=0.5;entryDx=0;entryDy=0;strokeWidth=2;" parent="1" source="oA13TZCjE6WFTzmoztiy-2" target="meVRYA2Hp27yC9P9ZgB7-14" edge="1">
          <mxGeometry width="50" height="50" relative="1" as="geometry">
            <mxPoint x="339" y="336" as="sourcePoint" />
            <mxPoint x="539" y="211" as="targetPoint" />
          </mxGeometry>
        </mxCell>
        <mxCell id="meVRYA2Hp27yC9P9ZgB7-42" value="" style="endArrow=classic;startArrow=classic;html=1;exitX=1;exitY=0.5;exitDx=0;exitDy=0;entryX=0;entryY=0.5;entryDx=0;entryDy=0;strokeWidth=2;" parent="1" source="oA13TZCjE6WFTzmoztiy-2" target="meVRYA2Hp27yC9P9ZgB7-18" edge="1">
          <mxGeometry width="50" height="50" relative="1" as="geometry">
            <mxPoint x="339" y="336" as="sourcePoint" />
            <mxPoint x="539" y="211" as="targetPoint" />
          </mxGeometry>
        </mxCell>
        <mxCell id="oA13TZCjE6WFTzmoztiy-2" value="&lt;b&gt;Load&lt;br&gt;Balancer&lt;/b&gt;" style="rounded=0;whiteSpace=wrap;html=1;fillColor=#fff2cc;strokeColor=none;strokeWidth=2;" parent="1" vertex="1">
          <mxGeometry x="284" y="309" width="120" height="60" as="geometry" />
        </mxCell>
        <mxCell id="8yhp9PqvoATfaGP5DkHy-1" value="&lt;b&gt;Health&lt;br&gt;Check&lt;/b&gt;" style="rounded=0;whiteSpace=wrap;html=1;fillColor=#fff2cc;strokeColor=none;strokeWidth=2;" vertex="1" parent="1">
          <mxGeometry x="284" y="388" width="120" height="60" as="geometry" />
        </mxCell>
        <mxCell id="8yhp9PqvoATfaGP5DkHy-2" value="" style="endArrow=classic;startArrow=classic;html=1;strokeWidth=2;exitX=1;exitY=0.5;exitDx=0;exitDy=0;entryX=0;entryY=0.5;entryDx=0;entryDy=0;" edge="1" parent="1" source="8yhp9PqvoATfaGP5DkHy-1" target="meVRYA2Hp27yC9P9ZgB7-4">
          <mxGeometry width="50" height="50" relative="1" as="geometry">
            <mxPoint x="414" y="349" as="sourcePoint" />
            <mxPoint x="523" y="204" as="targetPoint" />
          </mxGeometry>
        </mxCell>
        <mxCell id="8yhp9PqvoATfaGP5DkHy-3" value="" style="endArrow=classic;startArrow=classic;html=1;strokeWidth=2;" edge="1" parent="1">
          <mxGeometry width="50" height="50" relative="1" as="geometry">
            <mxPoint x="404" y="419" as="sourcePoint" />
            <mxPoint x="531" y="339" as="targetPoint" />
          </mxGeometry>
        </mxCell>
        <mxCell id="8yhp9PqvoATfaGP5DkHy-4" value="" style="endArrow=classic;startArrow=classic;html=1;strokeWidth=2;entryX=0;entryY=0.5;entryDx=0;entryDy=0;" edge="1" parent="1" target="meVRYA2Hp27yC9P9ZgB7-18">
          <mxGeometry width="50" height="50" relative="1" as="geometry">
            <mxPoint x="405" y="417" as="sourcePoint" />
            <mxPoint x="542" y="349" as="targetPoint" />
          </mxGeometry>
        </mxCell>
        <mxCell id="8yhp9PqvoATfaGP5DkHy-5" value="&lt;b&gt;SERVICE&lt;/b&gt;" style="rounded=0;whiteSpace=wrap;html=1;fillColor=#fff2cc;strokeColor=none;strokeWidth=2;" vertex="1" parent="1">
          <mxGeometry x="95" y="309" width="120" height="60" as="geometry" />
        </mxCell>
        <mxCell id="8yhp9PqvoATfaGP5DkHy-6" value="" style="endArrow=classic;startArrow=classic;html=1;entryX=0;entryY=0.5;entryDx=0;entryDy=0;strokeWidth=2;exitX=1;exitY=0.5;exitDx=0;exitDy=0;" edge="1" parent="1" source="8yhp9PqvoATfaGP5DkHy-5" target="oA13TZCjE6WFTzmoztiy-2">
          <mxGeometry width="50" height="50" relative="1" as="geometry">
            <mxPoint x="208" y="339" as="sourcePoint" />
            <mxPoint x="338" y="338.5" as="targetPoint" />
          </mxGeometry>
        </mxCell>
      </root>
    </mxGraphModel>
  </diagram>
</mxfile>
